# xmcd CD database file
#
# Track frame offsets:
#	150
#	19644
#	37735
#	51739
#	66512
#	86550
#	108962
#	126032
#	143475
#	163600
#	182952
#	202635
#	220340
#	237870
#	252472
#
# Disc length: 3602 seconds
#
# Revision: 0
# Processed by: cddbd v1.4PL0 Copyright (c) Steve Scherf et al.
# Submitted via: CDex 1.51
#
DISCID=cf0e100f
DTITLE=El Zafiro - 15 Exitos Vol. 3
DYEAR=1990
DGENRE=Merengue
TTITLE0=Dudas
TTITLE1=Con Las Manos En La Masa
TTITLE2=Nadie Como Yo
TTITLE3=Señora Melancolia
TTITLE4=No Me Importa
TTITLE5=Dejame
TTITLE6=Que Es Lo Que Tienes
TTITLE7=Y Tu No Corresponde
TTITLE8=Quisiera Estar Contigo
TTITLE9=A Nadie Le Importa
TTITLE10=Sin Ella Y Sin Ti
TTITLE11=Si Supieras
TTITLE12=No Volvere
TTITLE13=Andando Voy
TTITLE14=Te Quedaste Sin Na
EXTD=YEAR: 1990
EXTT0=
EXTT1=
EXTT2=
EXTT3=
EXTT4=
EXTT5=
EXTT6=
EXTT7=
EXTT8=
EXTT9=
EXTT10=
EXTT11=
EXTT12=
EXTT13=
EXTT14=
PLAYORDER=
